<svg xmlns="http://www.w3.org/2000/svg" viewBox="0 0 680 680" height="680" width="680"><g xmlns="http://www.w3.org/2000/svg" transform="matrix(-1 0 0 -1 680 680)"><path d="M579 340.404C579 472.4 471.996 579.404 340 579.404C208.004 579.404 101 472.4 101 340.404C101 208.408 208.004 101.404 340 101.404C471.996 101.404 579 208.408 579 340.404Z" fill="#FFE6B9" /><path d="M191.225 216.899L190.935 216.624L191.253 215.823C191.484 215.308 191.538 214.882 191.416 214.546C191.312 214.19 191.076 213.838 190.708 213.49L175.518 199.106C175.13 198.739 174.756 198.513 174.396 198.429C174.053 198.325 173.631 198.403 173.129 198.661L172.346 199.022L172.056 198.747L179.042 191.37L179.332 191.645L179.068 192.331C178.855 192.828 178.8 193.253 178.904 193.609C178.989 193.946 179.225 194.298 179.612 194.665L186.67 201.348L193.243 194.406L186.186 187.723C185.798 187.357 185.434 187.14 185.093 187.074C184.75 186.97 184.328 187.048 183.826 187.307L183.127 187.637L182.837 187.362L189.85 179.955L190.141 180.23L189.823 181.031C189.61 181.528 189.556 181.954 189.66 182.309C189.764 182.665 190.009 183.026 190.397 183.392L205.587 197.776C205.955 198.125 206.319 198.341 206.68 198.426C207.041 198.51 207.463 198.433 207.947 198.193L208.729 197.832L209.02 198.107L202.006 205.514L201.716 205.239L202.037 204.551C202.249 204.017 202.303 203.591 202.2 203.273C202.096 202.918 201.85 202.556 201.463 202.19L193.824 194.956L187.251 201.898L194.89 209.131C195.606 209.81 196.403 209.958 197.279 209.576L197.921 209.247L198.211 209.522L191.225 216.899Z" fill="#1E1E1E" /><path d="M202.421 178.066C203.739 176.94 205.098 176.252 206.498 176.003C207.881 175.733 209.214 175.856 210.498 176.373C211.784 176.852 212.93 177.68 213.935 178.856C214.125 179.079 214.314 179.32 214.502 179.581C214.672 179.821 214.805 180.059 214.9 180.293L205.838 188.037C207.729 190.209 209.466 191.461 211.047 191.793C212.632 192.088 214.174 191.594 215.675 190.312C216.688 189.446 217.371 188.582 217.722 187.721C218.073 186.859 218.254 185.881 218.264 184.784L218.802 184.798C219.127 186.45 219.03 188.041 218.513 189.57C218.016 191.082 217.038 192.462 215.578 193.709C214.139 194.939 212.602 195.726 210.967 196.071C209.315 196.396 207.681 196.248 206.065 195.63C204.449 195.011 202.957 193.901 201.588 192.3C200.168 190.638 199.329 188.917 199.071 187.137C198.796 185.338 198.966 183.649 199.582 182.071C200.218 180.475 201.164 179.14 202.421 178.066ZM202.85 178.752C202.262 179.255 201.911 179.87 201.797 180.599C201.686 181.29 201.899 182.196 202.435 183.316C202.974 184.398 203.935 185.769 205.318 187.429L210.518 182.985C208.833 180.602 207.392 179.08 206.195 178.419C204.999 177.758 203.883 177.869 202.85 178.752Z" fill="#1E1E1E" /><path d="M229.167 194.198C228.296 194.814 227.446 195.089 226.615 195.023C225.806 194.942 225.163 194.564 224.686 193.889C224.255 193.279 224.126 192.636 224.3 191.957C224.473 191.279 224.832 190.748 225.376 190.363C225.921 189.978 226.455 189.763 226.979 189.719C227.518 189.697 228.084 189.803 228.675 190.038L229.088 190.138C230.029 190.452 230.5 190.103 230.502 189.089C230.467 188.624 230.376 188.034 230.231 187.321C230.122 186.613 229.916 185.698 229.611 184.574L212.557 173.904C212.112 173.598 211.718 173.387 211.374 173.271C211.015 173.133 210.578 173.115 210.063 173.218L209.314 173.405L209.083 173.079L217.214 167.327L217.422 167.621L216.954 168.344C216.582 168.835 216.509 169.263 216.734 169.626C216.965 169.953 217.344 170.305 217.873 170.682L227.506 177.097L224.433 165.895C224.252 165.271 224.025 164.811 223.751 164.516C223.461 164.198 223.019 164.151 222.426 164.375L221.625 164.696L221.394 164.37L225.933 161.159L226.164 161.485L225.607 162.222C225.214 162.729 225.02 163.193 225.024 163.615C225.028 164.036 225.121 164.559 225.301 165.183L230.184 183.238C230.952 186.124 231.312 188.434 231.264 190.166C231.216 191.899 230.517 193.243 229.167 194.198Z" fill="#1E1E1E" /><path d="M249.636 170.552C248.137 171.366 246.761 171.628 245.51 171.336C244.283 171.032 243.224 170.059 242.333 168.419L235.804 156.397L233.379 157.715L233.188 157.363L233.955 156.764C234.592 156.206 235.086 155.634 235.436 155.05C235.81 154.452 236.114 153.756 236.35 152.96L237.495 148.196L237.846 148.005L240.414 152.984L244.35 150.845L244.732 151.548L240.76 153.706L247.633 166.36C248.078 167.18 248.591 167.705 249.172 167.936C249.776 168.155 250.359 168.111 250.922 167.805C251.414 167.538 251.784 167.186 252.031 166.748C252.266 166.286 252.457 165.743 252.602 165.117L253.145 165.278C253.109 166.329 252.808 167.312 252.242 168.226C251.677 169.14 250.808 169.915 249.636 170.552Z" fill="#1E1E1E" /><path d="M253.08 167.768L252.92 167.401L253.296 167.062C254.047 166.385 254.221 165.582 253.815 164.653L245.268 145.078C245.044 144.565 244.793 144.223 244.516 144.053C244.238 143.884 243.828 143.844 243.286 143.936L242.672 144.029L242.512 143.663L248.275 139.269L249.006 139.343L251.116 144.576L253.117 149.158C253.663 148.076 254.318 147.077 255.082 146.162C255.86 145.211 256.848 144.474 258.045 143.951C259.634 143.258 261.09 143.16 262.413 143.659C263.761 144.147 264.846 145.332 265.667 147.214L270.181 157.552C270.394 158.04 270.663 158.389 270.986 158.597C271.31 158.805 271.748 158.875 272.301 158.808L272.642 158.79L272.802 159.157L264.224 162.902L264.064 162.536L264.456 162.234C265.208 161.556 265.375 160.741 264.959 159.788L259.934 148.277C259.507 147.299 259.042 146.702 258.54 146.485C258.062 146.257 257.408 146.324 256.577 146.687C256.04 146.922 255.501 147.288 254.962 147.785C254.412 148.258 253.919 148.896 253.483 149.697L259.053 162.454C259.469 163.407 260.175 163.826 261.173 163.711L261.498 163.656L261.658 164.023L253.08 167.768Z" fill="#1E1E1E" /><path d="M274.295 137.973C275.942 137.432 277.46 137.312 278.85 137.614C280.232 137.89 281.418 138.511 282.409 139.476C283.417 140.408 284.162 141.609 284.645 143.079C284.736 143.357 284.819 143.653 284.894 143.965C284.96 144.252 284.993 144.522 284.992 144.775L273.667 148.494C274.591 151.222 275.721 153.04 277.058 153.949C278.412 154.823 280.026 154.953 281.901 154.337C283.168 153.921 284.127 153.381 284.779 152.718C285.432 152.055 285.971 151.218 286.397 150.208L286.889 150.425C286.561 152.076 285.868 153.511 284.808 154.729C283.774 155.939 282.345 156.843 280.521 157.443C278.722 158.033 277.001 158.177 275.358 157.875C273.707 157.547 272.251 156.79 270.992 155.604C269.732 154.418 268.773 152.824 268.116 150.823C267.434 148.745 267.311 146.835 267.749 145.091C268.179 143.322 268.978 141.824 270.147 140.598C271.342 139.364 272.724 138.489 274.295 137.973ZM274.431 138.771C273.696 139.012 273.137 139.448 272.755 140.079C272.39 140.676 272.243 141.594 272.313 142.834C272.4 144.041 272.768 145.674 273.417 147.734L279.916 145.6C279.262 142.755 278.507 140.8 277.652 139.734C276.797 138.667 275.723 138.346 274.431 138.771Z" fill="#1E1E1E" /><path d="M287.382 154.569L287.289 154.18L287.836 153.886C288.318 153.606 288.612 153.29 288.72 152.935C288.853 152.574 288.861 152.148 288.744 151.655L285.847 139.475C285.711 138.904 285.509 138.513 285.24 138.303C284.99 138.061 284.594 137.95 284.05 137.97L283.429 137.953L283.337 137.564L289.493 133.715L289.975 134.011L291.121 137.274L291.195 137.586C291.386 136.773 291.695 136 292.124 135.268C292.573 134.503 293.101 133.843 293.709 133.287C294.343 132.726 295.01 132.361 295.71 132.195C296.696 131.96 297.513 132.054 298.162 132.475C298.81 132.896 299.233 133.522 299.43 134.352C299.64 135.234 299.544 135.984 299.143 136.6C298.761 137.184 298.22 137.56 297.519 137.726C296.43 137.985 295.34 137.669 294.251 136.777L294.155 136.717C293.809 136.416 293.464 136.292 293.121 136.347C292.771 136.375 292.497 136.605 292.298 137.036C292.094 137.331 291.941 137.669 291.84 138.049C291.758 138.397 291.689 138.798 291.632 139.25L294.215 150.107C294.461 151.145 295.07 151.685 296.039 151.729L297.368 151.783L297.46 152.172L287.382 154.569Z" fill="#1E1E1E" /><path d="M308.839 129.916C310.553 129.659 312.07 129.795 313.39 130.325C314.706 130.828 315.771 131.639 316.587 132.757C317.424 133.844 317.958 135.153 318.187 136.683C318.231 136.973 318.263 137.278 318.285 137.598C318.302 137.892 318.289 138.164 318.245 138.413L306.457 140.184C306.912 143.028 307.722 145.009 308.887 146.129C310.076 147.218 311.646 147.616 313.597 147.322C314.916 147.124 315.952 146.753 316.706 146.208C317.46 145.664 318.132 144.929 318.721 144.004L319.17 144.301C318.57 145.874 317.646 147.173 316.398 148.196C315.176 149.216 313.615 149.868 311.717 150.153C309.844 150.434 308.124 150.288 306.554 149.715C304.981 149.115 303.673 148.125 302.63 146.745C301.586 145.365 300.908 143.633 300.595 141.55C300.27 139.387 300.47 137.483 301.193 135.837C301.913 134.165 302.952 132.823 304.31 131.81C305.694 130.793 307.204 130.162 308.839 129.916ZM308.839 130.725C308.074 130.84 307.45 131.176 306.968 131.734C306.508 132.262 306.209 133.143 306.071 134.377C305.955 135.581 306.044 137.253 306.339 139.393L313.103 138.377C312.935 135.463 312.518 133.408 311.853 132.214C311.189 131.019 310.184 130.523 308.839 130.725Z" fill="#1E1E1E" /><path d="M322.524 154.639L322.24 154.1C323.099 153.47 323.723 152.738 324.111 151.904C324.528 151.095 324.783 150.098 324.875 148.914L323.515 148.461C322.714 148.15 322.078 147.719 321.606 147.169C321.159 146.589 320.91 145.994 320.861 145.382C320.787 144.452 321.031 143.657 321.594 142.996C322.154 142.309 322.926 141.927 323.91 141.848C324.92 141.768 325.759 142.062 326.428 142.731C327.121 143.371 327.521 144.355 327.627 145.684C327.744 147.146 327.542 148.473 327.022 149.665C326.531 150.882 325.877 151.91 325.062 152.751C324.248 153.619 323.402 154.248 322.524 154.639Z" fill="#1E1E1E" /><path d="M338.285 147.414L338.291 147.014L339.096 146.707C339.633 146.53 339.984 146.282 340.149 145.965C340.341 145.648 340.442 145.223 340.45 144.69L340.8 123.813C340.809 123.28 340.736 122.852 340.582 122.529C340.427 122.206 340.071 121.947 339.514 121.751L338.72 121.418L338.727 121.018L349.005 121.19L348.999 121.59L348.193 121.896C347.657 122.074 347.293 122.321 347.101 122.638C346.935 122.955 346.848 123.381 346.839 123.914L346.49 144.791C346.481 145.324 346.553 145.752 346.708 146.075C346.89 146.371 347.246 146.631 347.775 146.853L348.57 147.186L348.563 147.586L338.285 147.414Z" fill="#1E1E1E" /><path d="M354.115 118.665C355.1 118.727 355.862 119.136 356.403 119.892C356.971 120.622 357.219 121.56 357.147 122.704C357.053 124.195 356.526 125.564 355.566 126.813C354.607 128.035 353.455 128.924 352.111 129.481L351.902 128.987C352.487 128.596 353.014 128.081 353.482 127.443C353.95 126.804 354.308 125.999 354.556 125.026L353.73 124.773C352.812 124.502 352.105 124.07 351.608 123.477C351.139 122.86 350.93 122.152 350.98 121.354C351.034 120.502 351.357 119.828 351.949 119.331C352.568 118.835 353.29 118.613 354.115 118.665Z" fill="#1E1E1E" /><path d="M354.233 147.251L354.296 146.856L354.874 146.787C355.396 146.735 355.774 146.566 356.009 146.28C356.27 145.997 356.456 145.595 356.566 145.073L358.545 132.71C358.638 132.131 358.613 131.695 358.471 131.402C358.333 131.083 358.009 130.828 357.499 130.639L356.932 130.386L356.995 129.991L364.116 128.781L364.447 129.239L364.334 131.975C365.342 131.246 366.447 130.666 367.65 130.238C368.879 129.813 370.099 129.698 371.311 129.892C372.574 130.094 373.546 130.52 374.225 131.168C374.909 131.791 375.362 132.674 375.584 133.816C376.767 133.006 377.995 132.42 379.268 132.057C380.572 131.671 381.791 131.569 382.923 131.75C384.792 132.049 386.09 132.716 386.816 133.75C387.568 134.789 387.79 136.269 387.482 138.192L385.63 149.764C385.466 150.791 385.837 151.512 386.742 151.927L387.158 152.115L387.095 152.51L377.971 151.05L378.034 150.655L378.448 150.6C378.973 150.522 379.354 150.34 379.589 150.053C379.85 149.771 380.023 149.367 380.107 148.84L382.041 136.754C382.218 135.648 382.141 134.866 381.809 134.407C381.481 133.923 380.883 133.611 380.014 133.472C379.33 133.363 378.633 133.413 377.924 133.624C377.246 133.812 376.503 134.152 375.695 134.644C375.759 135.087 375.764 135.56 375.71 136.065C375.683 136.573 375.625 137.104 375.537 137.657L373.899 147.887C373.761 148.918 374.132 149.639 375.012 150.05L375.348 150.225L375.285 150.62L366.121 149.154L366.185 148.759L366.763 148.689C367.289 148.611 367.667 148.442 367.897 148.182C368.159 147.9 368.331 147.495 368.416 146.969L370.343 134.922C370.512 133.869 370.435 133.087 370.111 132.576C369.814 132.069 369.205 131.742 368.283 131.595C367.678 131.498 367.047 131.559 366.391 131.778C365.739 131.971 365.037 132.304 364.286 132.778L362.169 146.01C362.004 147.037 362.362 147.755 363.241 148.166L363.578 148.342L363.515 148.737L354.233 147.251Z" fill="#1E1E1E" /><path d="M391.375 153.97L391.506 153.592L392.404 153.564C393.324 153.515 393.949 153.011 394.28 152.053L401.095 132.317C401.443 131.309 401.262 130.527 400.551 129.971L399.862 129.394L399.992 129.016L409.974 132.463C412.646 133.386 414.765 134.682 416.333 136.352C417.934 138.005 418.93 139.943 419.319 142.165C419.742 144.37 419.506 146.771 418.609 149.367C417.695 152.014 416.349 154.074 414.571 155.548C412.792 157.021 410.712 157.897 408.331 158.175C405.975 158.462 403.424 158.131 400.676 157.182L391.375 153.97ZM399.312 155.864L400.937 156.426C402.752 157.053 404.336 157.204 405.689 156.882C407.05 156.534 408.275 155.602 409.362 154.088C410.483 152.556 411.557 150.304 412.584 147.329C413.612 144.355 414.152 141.932 414.206 140.06C414.294 138.172 413.917 136.688 413.077 135.608C412.246 134.503 410.948 133.646 409.183 133.036L407.406 132.423L399.312 155.864Z" fill="#1E1E1E" /><path d="M426.284 143.583C425.454 143.218 424.859 142.65 424.498 141.88C424.173 141.096 424.188 140.301 424.542 139.496C424.907 138.666 425.483 138.118 426.27 137.853C427.081 137.598 427.902 137.653 428.732 138.018C429.562 138.383 430.145 138.945 430.481 139.705C430.817 140.464 430.802 141.259 430.437 142.089C430.083 142.894 429.507 143.442 428.709 143.732C427.922 143.998 427.114 143.948 426.284 143.583ZM413.137 161.747L413.298 161.381L413.875 161.46C414.428 161.528 414.854 161.454 415.154 161.236C415.478 161.029 415.747 160.681 415.962 160.193L421.003 148.733C421.229 148.22 421.298 147.799 421.21 147.469C421.157 147.125 420.908 146.797 420.463 146.485L419.998 146.15L420.159 145.783L427.81 146.571L428.015 147.098L425.618 152.249L421.108 162.501C420.894 162.989 420.807 163.417 420.849 163.785C420.916 164.164 421.149 164.528 421.548 164.879L421.866 165.15L421.705 165.516L413.137 161.747Z" fill="#1E1E1E" /><path d="M421.464 165.129L421.652 164.776L422.222 164.899C423.17 165.105 423.89 164.75 424.381 163.833L430.295 152.798C430.572 152.281 430.691 151.86 430.653 151.537C430.627 151.19 430.404 150.844 429.984 150.498L429.531 150.074L429.72 149.721L436.845 150.907L437.008 151.449L436.157 153.715C437.37 153.427 438.619 153.325 439.906 153.41C441.192 153.494 442.34 153.807 443.351 154.348C444.902 155.179 445.862 156.239 446.232 157.526C446.624 158.825 446.355 160.345 445.423 162.084L439.981 172.238C439.49 173.155 439.628 173.97 440.395 174.684L440.656 174.959L440.467 175.312L432.146 170.853L432.335 170.501L432.869 170.605C433.83 170.787 434.55 170.432 435.029 169.539L441.056 158.292C441.862 156.788 441.513 155.632 440.009 154.826C438.974 154.272 437.569 154.185 435.793 154.564L429.369 166.551C428.878 167.468 428.981 168.264 429.677 168.94L429.938 169.216L429.749 169.568L421.464 165.129Z" fill="#1E1E1E" /><path d="M458.281 163.512C459.724 164.472 460.757 165.592 461.379 166.871C462.016 168.128 462.261 169.444 462.115 170.82C462.005 172.188 461.522 173.516 460.665 174.804C460.502 175.048 460.321 175.296 460.122 175.547C459.937 175.777 459.745 175.969 459.545 176.125L449.622 169.521C448.048 171.934 447.318 173.946 447.43 175.558C447.58 177.163 448.476 178.512 450.118 179.605C451.228 180.344 452.246 180.765 453.17 180.867C454.095 180.97 455.086 180.877 456.143 180.587L456.277 181.109C454.776 181.872 453.22 182.213 451.607 182.133C450.017 182.068 448.423 181.504 446.824 180.44C445.248 179.391 444.071 178.127 443.293 176.649C442.53 175.148 442.225 173.536 442.379 171.813C442.533 170.089 443.194 168.351 444.361 166.597C445.572 164.776 446.998 163.499 448.64 162.766C450.296 162.01 451.967 161.713 453.653 161.874C455.362 162.05 456.905 162.596 458.281 163.512ZM457.738 164.111C457.094 163.683 456.406 163.514 455.674 163.603C454.979 163.685 454.166 164.137 453.235 164.958C452.34 165.773 451.284 167.072 450.065 168.855L455.759 172.644C457.592 170.372 458.663 168.57 458.972 167.239C459.282 165.907 458.87 164.865 457.738 164.111Z" fill="#1E1E1E" /><path d="M459.325 189.541C457.98 188.49 457.193 187.332 456.962 186.069C456.753 184.822 457.223 183.463 458.373 181.992L466.799 171.216L464.625 169.516L464.872 169.201L465.726 169.666C466.493 170.028 467.214 170.253 467.889 170.342C468.586 170.446 469.346 170.448 470.17 170.348L474.996 169.501L475.311 169.747L471.767 174.085L475.296 176.844L474.803 177.475L471.242 174.69L462.372 186.034C461.797 186.769 461.519 187.449 461.539 188.073C461.579 188.714 461.851 189.232 462.356 189.626C462.797 189.971 463.267 190.17 463.768 190.223C464.285 190.255 464.859 190.213 465.491 190.097L465.559 190.659C464.581 191.045 463.56 191.16 462.496 191.005C461.432 190.85 460.375 190.362 459.325 189.541Z" fill="#1E1E1E" /><path d="M462.445 190.875L462.716 190.58L463.177 190.787C464.1 191.202 464.905 191.036 465.591 190.29L480.051 174.569C480.43 174.156 480.641 173.789 480.684 173.466C480.727 173.144 480.597 172.753 480.295 172.294L479.962 171.77L480.233 171.475L486.579 174.975L486.806 175.673L482.87 179.716L479.486 183.396C480.696 183.459 481.874 183.655 483.02 183.984C484.204 184.312 485.277 184.919 486.239 185.803C487.515 186.977 488.191 188.269 488.269 189.682C488.367 191.112 487.721 192.583 486.331 194.094L478.695 202.396C478.334 202.789 478.123 203.175 478.064 203.555C478.004 203.935 478.117 204.364 478.401 204.843L478.555 205.148L478.284 205.443L471.395 199.106L471.666 198.812L472.1 199.049C473.024 199.463 473.837 199.287 474.541 198.522L483.044 189.277C483.766 188.492 484.125 187.826 484.121 187.279C484.136 186.75 483.81 186.178 483.143 185.565C482.711 185.168 482.159 184.823 481.486 184.53C480.832 184.218 480.05 184.024 479.141 183.949L469.718 194.194C469.014 194.96 468.916 195.775 469.424 196.641L469.605 196.917L469.334 197.211L462.445 190.875Z" fill="#1E1E1E" /><path d="M501.005 190.717C501.675 191.441 501.966 192.225 501.877 193.071C501.808 193.899 501.401 194.657 500.658 195.345C500.051 195.907 498.958 196.63 497.377 197.513C495.815 198.378 494.108 199.36 492.254 200.459L488.602 202.697L488.086 202.139L490.596 198.669C491.812 196.96 492.911 195.361 493.893 193.87C494.894 192.361 495.717 191.307 496.363 190.709C497.106 190.021 497.893 189.673 498.724 189.667C499.574 189.643 500.334 189.993 501.005 190.717ZM480.845 209.392C480.175 208.668 479.858 207.835 479.894 206.893C479.93 205.951 480.3 205.154 481.004 204.501C481.689 203.867 482.502 203.568 483.444 203.604C484.406 203.622 485.222 203.992 485.893 204.716C486.545 205.421 486.843 206.253 486.788 207.213C486.752 208.155 486.391 208.943 485.707 209.578C485.003 210.23 484.179 210.538 483.237 210.502C482.295 210.466 481.498 210.096 480.845 209.392Z" fill="#1E1E1E" /><path d="M520.827 408.481L521.194 408.641L521.156 409.628C521.146 410.118 521.244 410.495 521.449 410.759C521.668 411.058 522.022 411.314 522.511 411.527L541.653 419.865C542.142 420.078 542.553 420.17 542.886 420.14C543.233 420.146 543.593 419.954 543.966 419.564L544.664 418.864L545.03 419.024L537.379 436.59L531.636 434.35L531.795 433.983L535.929 433.908C536.465 433.879 536.921 433.801 537.296 433.674C537.672 433.547 537.966 433.239 538.179 432.75L541.054 426.149L530.456 421.532L528.747 425.456C528.534 425.945 528.496 426.365 528.634 426.716C528.786 427.102 529.039 427.489 529.394 427.876L530.542 429.249L530.382 429.615L523.781 426.74L523.941 426.373L525.8 426.311C526.336 426.282 526.78 426.199 527.131 426.061C527.506 425.934 527.8 425.626 528.013 425.137L529.723 421.213L518.318 416.245L515.091 423.653C514.878 424.142 514.835 424.574 514.962 424.949C515.114 425.335 515.385 425.715 515.775 426.089L518.567 429.094L518.408 429.46L512.856 426.781L520.827 408.481Z" fill="#1E1E1E" /><path d="M513.616 425.299L513.965 425.494L513.668 426.519C513.486 427.119 513.42 427.648 513.471 428.104C513.532 428.596 513.699 429.117 513.973 429.666L517.282 436.46L527.477 435.92C527.957 435.882 528.341 435.822 528.632 435.74C528.922 435.657 529.224 435.444 529.538 435.1L529.951 434.689L530.3 434.884L525.349 443.756L525 443.561L525.191 442.889C525.39 441.932 524.969 441.483 523.927 441.543L517.893 441.932L520.454 447.438C520.707 447.915 520.968 448.213 521.237 448.333C521.517 448.489 521.838 448.378 522.202 448.001L522.933 447.264L523.283 447.459L520.437 452.558L520.088 452.363L520.346 451.408C520.492 450.818 520.527 450.318 520.45 449.909C520.396 449.512 520.227 449.021 519.944 448.435L517.03 442L506.92 442.633C505.687 442.709 504.669 443.164 503.867 443.999L503.381 444.46L503.032 444.265L508.411 434.625L508.761 434.82L508.569 435.492C508.441 435.939 508.491 436.288 508.719 436.537C508.956 436.822 509.327 436.953 509.829 436.928L516.33 436.524L513.361 430.516C513.145 430.029 512.871 429.754 512.539 429.691C512.218 429.664 511.907 429.811 511.606 430.132L511.041 430.733L510.692 430.538L513.616 425.299Z" fill="#1E1E1E" /><path d="M496.723 436.958L497.051 437.186L496.909 437.672C496.564 438.634 496.808 439.404 497.64 439.983L515.505 452.407C515.986 452.742 516.408 452.905 516.771 452.898C517.118 452.912 517.488 452.731 517.88 452.354L518.298 451.962L518.627 452.191L516.649 459.098L516.092 459.198L514.869 458.786C514.804 459.813 514.588 460.848 514.22 461.891C513.836 462.956 513.317 463.959 512.662 464.901C511.353 466.783 509.595 467.77 507.389 467.859C505.189 467.986 502.754 467.121 500.083 465.264C497.456 463.437 495.814 461.385 495.156 459.108C494.482 456.854 494.915 454.621 496.452 452.409C497.655 450.68 498.92 449.399 500.245 448.567L494.564 444.616C493.688 444.007 492.867 444.02 492.1 444.656L491.502 445.166L491.173 444.938L496.723 436.958ZM498.501 451.495C497.74 452.59 497.708 453.851 498.404 455.277C499.086 456.726 500.751 458.371 503.401 460.213C506.05 462.056 508.113 463.036 509.59 463.154C511.089 463.287 512.242 462.773 513.049 461.613C513.612 460.803 513.974 459.722 514.133 458.372L500.899 449.168C499.97 449.756 499.171 450.532 498.501 451.495Z" fill="#1E1E1E" /><path d="M492.246 459.12L492.556 459.373L492.376 459.846C492.017 460.792 492.229 461.586 493.014 462.227L509.587 475.765C510 476.102 510.377 476.273 510.719 476.276C511.081 476.297 511.482 476.143 511.923 475.814L512.345 475.487L512.655 475.74L509.356 482.497L508.773 482.641L504.538 478.975L493.943 470.32C493.179 469.696 492.415 469.072 491.651 468.447C490.891 467.861 490.139 467.264 489.395 466.656C488.982 466.319 488.574 466.123 488.171 466.069C487.788 466.032 487.374 466.159 486.93 466.45L486.508 466.777L486.198 466.524L492.246 459.12Z" fill="#1E1E1E" /><path d="M479.454 472.992C480.849 471.522 482.361 470.53 483.988 470.015C485.635 469.519 487.304 469.504 488.995 469.969C490.668 470.453 492.258 471.411 493.767 472.842C495.276 474.274 496.288 475.823 496.803 477.488C497.3 479.172 497.335 480.841 496.907 482.493C496.46 484.165 495.585 485.687 494.282 487.061C492.979 488.434 491.514 489.378 489.886 489.892C488.278 490.425 486.629 490.478 484.939 490.051C483.23 489.643 481.612 488.714 480.084 487.264C478.556 485.814 477.515 484.257 476.962 482.593C476.41 480.966 476.338 479.317 476.747 477.647C477.157 476.014 478.059 474.462 479.454 472.992ZM480.035 473.543C479.392 474.22 479.072 474.945 479.073 475.718C479.075 476.492 479.486 477.433 480.307 478.543C481.111 479.673 482.412 481.091 484.211 482.798C486.029 484.524 487.523 485.758 488.693 486.5C489.845 487.262 490.807 487.624 491.58 487.584C492.352 487.545 493.059 487.187 493.702 486.51C494.344 485.833 494.674 485.098 494.691 484.306C494.689 483.532 494.287 482.581 493.484 481.451C492.663 480.341 491.343 478.923 489.524 477.198C487.725 475.491 486.25 474.257 485.098 473.495C483.928 472.752 482.957 472.4 482.184 472.439C481.394 472.498 480.677 472.866 480.035 473.543Z" fill="#1E1E1E" /><path d="M474.094 479.487L474.359 479.786L474.017 480.304C473.724 480.778 473.614 481.196 473.686 481.559C473.739 481.94 473.934 482.32 474.27 482.699L482.577 492.066C482.967 492.505 483.33 492.753 483.666 492.811C484.001 492.907 484.403 492.817 484.872 492.543L485.427 492.265L485.693 492.564L482.085 498.865L481.52 498.831L478.968 496.497L478.756 496.257C478.972 497.064 479.064 497.891 479.032 498.739C478.998 499.625 478.845 500.456 478.571 501.233C478.278 502.028 477.862 502.664 477.324 503.142C476.565 503.814 475.801 504.118 475.031 504.053C474.26 503.988 473.592 503.636 473.025 502.998C472.424 502.319 472.154 501.614 472.217 500.881C472.278 500.185 472.577 499.599 473.116 499.121C473.954 498.378 475.064 498.142 476.445 498.414L476.558 498.421C477.005 498.523 477.367 498.469 477.644 498.259C477.939 498.069 478.072 497.737 478.044 497.263C478.084 496.906 478.059 496.537 477.969 496.153C477.876 495.808 477.748 495.422 477.585 494.997L470.18 486.648C469.472 485.85 468.68 485.661 467.805 486.08L466.609 486.66L466.343 486.361L474.094 479.487Z" fill="#1E1E1E" /><path d="M472.112 509.957C472.828 509.4 473.61 509.146 474.459 509.195C475.304 509.281 475.996 509.671 476.536 510.366C477.093 511.081 477.302 511.848 477.162 512.667C477 513.502 476.562 514.198 475.847 514.755C475.131 515.312 474.359 515.558 473.531 515.492C472.703 515.427 472.011 515.037 471.454 514.321C470.914 513.627 470.705 512.86 470.829 512.02C470.969 511.201 471.397 510.514 472.112 509.957ZM462.374 489.759L462.62 490.075L462.276 490.545C461.954 490.999 461.817 491.41 461.866 491.777C461.894 492.16 462.072 492.563 462.4 492.983L470.089 502.864C470.433 503.306 470.771 503.566 471.104 503.646C471.431 503.763 471.838 503.699 472.324 503.456L472.84 503.207L473.086 503.522L468.759 509.881L468.197 509.811L464.803 505.255L457.924 496.416C457.597 495.995 457.261 495.716 456.917 495.578C456.552 495.456 456.121 495.488 455.623 495.673L455.233 495.824L454.988 495.508L462.374 489.759Z" fill="#1E1E1E" /><path d="M455.754 495.241L455.975 495.575L455.596 496.017C454.965 496.755 454.937 497.558 455.512 498.425L462.428 508.861C462.752 509.35 463.066 509.654 463.368 509.773C463.686 509.915 464.097 509.883 464.6 509.677L465.189 509.479L465.41 509.812L460.99 515.525L460.435 515.412L458.843 513.588C458.521 514.793 458.019 515.942 457.336 517.034C456.652 518.127 455.832 518.99 454.877 519.624C453.409 520.596 452.022 520.94 450.713 520.655C449.383 520.385 448.173 519.428 447.083 517.783L440.719 508.18C440.144 507.313 439.361 507.048 438.369 507.386L438.003 507.485L437.782 507.151L445.651 501.936L445.872 502.27L445.527 502.69C444.911 503.451 444.883 504.253 445.442 505.098L452.491 515.734C453.434 517.157 454.616 517.397 456.039 516.454C457.017 515.806 457.76 514.61 458.268 512.866L450.755 501.529C450.181 500.662 449.431 500.375 448.505 500.668L448.139 500.767L447.918 500.434L455.754 495.241Z" fill="#1E1E1E" /><path d="M435.12 516.233C436.744 515.368 438.265 514.905 439.683 514.845L439.044 513.645C438.656 512.915 438.059 512.674 437.254 512.921L429.959 515.221C428.739 515.598 427.589 515.848 426.506 515.972C425.436 516.118 424.462 516.018 423.582 515.671C422.715 515.347 421.993 514.644 421.416 513.562C420.802 512.408 420.614 511.149 420.853 509.782C421.08 508.393 421.778 507.009 422.948 505.631C424.081 504.241 425.742 502.964 427.931 501.798C429.814 500.795 431.415 500.199 432.734 500.01C434.041 499.798 435.093 499.872 435.89 500.233C436.663 500.607 437.231 501.135 437.595 501.818C438.046 502.665 438.221 503.675 438.12 504.846C437.983 506.007 437.628 507.072 437.057 508.041C437.937 507.935 438.661 508.018 439.228 508.289C439.796 508.561 440.218 508.956 440.494 509.474C440.744 509.944 440.859 510.443 440.836 510.968C440.803 511.53 440.723 512.116 440.595 512.728L440.22 514.831C442.465 514.905 444.151 516.001 445.279 518.119C446.182 519.814 446.315 521.51 445.679 523.209C445.019 524.92 443.512 526.402 441.158 527.655C439.958 528.295 438.835 528.711 437.791 528.905C436.722 529.112 435.756 529.113 434.892 528.908C434.201 529.427 433.595 529.991 433.074 530.601C432.542 531.247 432.131 531.95 431.84 532.709L431.158 532.619L430.199 530.818L434.188 528.694C432.84 528.203 431.77 527.217 430.981 525.734C430.103 524.087 429.988 522.396 430.635 520.661C431.272 518.963 432.767 517.487 435.12 516.233ZM435.532 516.92C434.59 517.422 434.114 518.174 434.104 519.176C434.071 520.191 434.537 521.604 435.502 523.417C436.467 525.229 437.368 526.381 438.204 526.872C439.028 527.4 439.888 527.426 440.782 526.949C441.653 526.485 442.105 525.746 442.139 524.731C442.185 523.74 441.725 522.338 440.76 520.526C439.795 518.713 438.912 517.537 438.11 516.997C437.286 516.47 436.426 516.444 435.532 516.92ZM435.584 504.339C434.844 502.95 433.863 502.129 432.639 501.874C431.392 501.632 429.839 502.006 427.98 502.996C426.026 504.036 424.724 505.138 424.074 506.3C423.424 507.462 423.406 508.619 424.02 509.772C424.371 510.431 424.901 510.829 425.608 510.966C426.292 511.116 427.267 510.989 428.533 510.587L435.562 508.384C435.776 508.331 435.989 508.277 436.203 508.224C436.281 507.578 436.27 506.904 436.168 506.203C436.054 505.478 435.859 504.857 435.584 504.339Z" fill="#1E1E1E" /><path d="M417.588 540.798C418.433 540.47 419.256 540.452 420.055 540.742C420.839 541.068 421.39 541.641 421.708 542.461C422.035 543.306 422.015 544.101 421.645 544.845C421.251 545.598 420.631 546.139 419.786 546.467C418.94 546.794 418.13 546.808 417.356 546.508C416.582 546.207 416.031 545.634 415.703 544.789C415.385 543.968 415.406 543.174 415.766 542.405C416.135 541.661 416.743 541.125 417.588 540.798ZM414.066 518.654L414.21 519.027L413.746 519.378C413.307 519.72 413.058 520.074 412.999 520.44C412.916 520.815 412.971 521.252 413.164 521.749L417.689 533.423C417.891 533.945 418.14 534.292 418.436 534.463C418.716 534.669 419.124 534.725 419.659 534.632L420.225 534.542L420.37 534.915L414.397 539.761L413.88 539.533L411.939 534.193L407.89 523.75C407.698 523.253 407.456 522.889 407.167 522.658C406.852 522.437 406.43 522.343 405.899 522.377L405.483 522.41L405.339 522.037L414.066 518.654Z" fill="#1E1E1E" /><path d="M406.489 521.881L406.606 522.263L406.118 522.58C405.303 523.108 405.048 523.869 405.352 524.864L409.011 536.837C409.182 537.398 409.396 537.779 409.652 537.979C409.917 538.205 410.319 538.291 410.861 538.237L411.481 538.215L411.598 538.598L405.735 542.815L405.235 542.55L404.228 540.348C403.577 541.411 402.768 542.369 401.802 543.222C400.836 544.075 399.804 544.669 398.708 545.005C397.025 545.519 395.596 545.453 394.423 544.808C393.225 544.171 392.337 542.908 391.76 541.021L388.393 530.004C388.09 529.009 387.414 528.533 386.367 528.574L385.988 528.564L385.871 528.182L394.899 525.423L395.016 525.805L394.565 526.11C393.758 526.664 393.503 527.425 393.799 528.394L397.528 540.597C398.027 542.229 399.092 542.796 400.724 542.297C401.847 541.954 402.899 541.019 403.882 539.491L399.908 526.485C399.604 525.491 398.967 525.002 397.996 525.02L397.617 525.01L397.5 524.628L406.489 521.881Z" fill="#1E1E1E" /><path d="M387.057 527.681L387.143 528.072L386.66 528.3C386.194 528.539 385.852 528.846 385.634 529.222C385.422 529.623 385.373 530.084 385.487 530.605C385.698 531.569 385.907 532.52 386.113 533.457C386.298 534.427 386.497 535.394 386.708 536.357L388.859 546.164L391.047 545.684L391.142 546.114L390.316 546.459C389.807 546.625 389.469 546.89 389.303 547.254C389.137 547.618 389.062 548.085 389.078 548.655C389.041 549.728 388.857 550.696 388.528 551.56C388.178 552.456 387.75 553.301 387.241 554.095C386.457 555.25 385.558 556.13 384.544 556.734C383.51 557.371 382.459 557.806 381.391 558.04C380.349 558.269 379.35 558.256 378.393 558.002C377.442 557.774 376.858 557.165 376.641 556.175C376.486 555.472 376.572 554.866 376.897 554.358C377.228 553.876 377.771 553.552 378.527 553.386C379.152 553.249 379.762 553.292 380.357 553.517C380.953 553.741 381.592 554.229 382.275 554.98L382.968 555.524C383.335 555.826 383.658 555.932 383.939 555.843C384.226 555.78 384.388 555.526 384.427 555.081C384.409 554.129 384.318 553.03 384.154 551.783C383.964 550.541 383.74 549.335 383.483 548.163L379.107 549.123L378.935 548.341L383.311 547.381L379.917 531.909C379.7 530.919 379.039 530.395 377.934 530.338L376.906 530.317L376.82 529.927L387.057 527.681Z" fill="#1E1E1E" /><path d="M373.867 552.664C374.762 552.521 375.57 552.675 376.29 553.127C376.988 553.61 377.407 554.285 377.546 555.154C377.69 556.049 377.503 556.822 376.985 557.472C376.442 558.126 375.723 558.525 374.827 558.668C373.932 558.811 373.137 558.655 372.443 558.199C371.749 557.743 371.33 557.067 371.187 556.172C371.048 555.303 371.235 554.53 371.748 553.854C372.265 553.204 372.971 552.808 373.867 552.664ZM375.063 530.274L375.126 530.669L374.599 530.915C374.097 531.158 373.78 531.452 373.646 531.797C373.486 532.147 373.448 532.585 373.532 533.111L375.511 545.474C375.599 546.027 375.77 546.418 376.023 546.648C376.254 546.908 376.641 547.049 377.184 547.07L377.756 547.1L377.819 547.495L370.964 550.982L370.506 550.65L369.727 545.023L367.957 533.963C367.873 533.437 367.713 533.03 367.478 532.744C367.217 532.461 366.824 532.281 366.298 532.203L365.884 532.148L365.821 531.753L375.063 530.274Z" fill="#1E1E1E" /><path d="M366.863 531.874L366.896 532.273L366.351 532.479C365.443 532.822 365.032 533.512 365.118 534.548L366.154 547.025C366.203 547.61 366.331 548.027 366.539 548.278C366.749 548.554 367.125 548.724 367.665 548.786L368.276 548.896L368.309 549.294L361.685 552.173L361.253 551.807L360.736 549.442C359.874 550.343 358.88 551.108 357.755 551.736C356.63 552.365 355.496 552.727 354.353 552.822C352.599 552.967 351.218 552.6 350.208 551.721C349.172 550.844 348.572 549.422 348.409 547.455L347.455 535.975C347.369 534.938 346.81 534.329 345.778 534.147L345.41 534.058L345.377 533.659L354.784 532.878L354.817 533.276L354.312 533.479C353.406 533.848 352.995 534.538 353.079 535.548L354.135 548.264C354.277 549.965 355.198 550.745 356.899 550.603C358.068 550.506 359.295 549.816 360.58 548.532L359.454 534.978C359.368 533.942 358.849 533.329 357.897 533.141L357.528 533.051L357.495 532.652L366.863 531.874Z" fill="#1E1E1E" /><path d="M341.06 555.359C341.966 555.355 342.741 555.632 343.383 556.19C343.998 556.774 344.308 557.506 344.311 558.386C344.315 559.293 344.011 560.027 343.4 560.59C342.762 561.152 341.99 561.435 341.083 561.439C340.177 561.443 339.416 561.166 338.8 560.608C338.185 560.05 337.875 559.318 337.871 558.412C337.868 557.532 338.172 556.797 338.783 556.208C339.394 555.646 340.153 555.363 341.06 555.359ZM345.693 533.421L345.695 533.821L345.135 533.983C344.603 534.145 344.244 534.386 344.058 534.707C343.846 535.028 343.741 535.455 343.743 535.988L343.793 548.508C343.795 549.068 343.903 549.481 344.117 549.747C344.305 550.039 344.666 550.238 345.2 550.343L345.76 550.46L345.762 550.86L338.451 553.249L338.05 552.851L338.147 547.17L338.103 535.97C338.101 535.437 338.006 535.011 337.818 534.692C337.604 534.372 337.243 534.134 336.735 533.976L336.335 533.857L336.333 533.457L345.693 533.421Z" fill="#1E1E1E" /><path d="M329.315 532.541C331.02 532.63 332.329 533.125 333.244 534.027C334.131 534.928 334.527 536.31 334.43 538.174L333.719 551.836L336.475 551.979L336.454 552.379L335.487 552.489C334.652 552.632 333.932 552.862 333.328 553.177C332.698 553.492 332.074 553.926 331.458 554.482L327.993 557.946L327.594 557.926L328.005 552.339L323.531 552.107L323.572 551.308L328.086 551.543L328.835 537.162C328.883 536.23 328.72 535.514 328.346 535.014C327.944 534.512 327.424 534.245 326.785 534.212C326.226 534.183 325.726 534.29 325.286 534.534C324.845 534.805 324.399 535.169 323.948 535.626L323.569 535.206C324.149 534.328 324.919 533.647 325.878 533.163C326.838 532.679 327.984 532.472 329.315 532.541Z" fill="#1E1E1E" /><path d="M322.109 523.065C323.166 523.207 323.976 523.585 324.539 524.199C325.076 524.809 325.29 525.524 325.18 526.343C325.081 527.083 324.736 527.642 324.148 528.021C323.559 528.399 322.934 528.544 322.273 528.455C321.612 528.367 321.075 528.16 320.661 527.835C320.251 527.484 319.909 527.021 319.637 526.447L319.402 526.092C318.927 525.221 318.344 525.157 317.652 525.898C317.361 526.262 317.026 526.756 316.646 527.377C316.244 527.969 315.772 528.78 315.23 529.811L320.453 549.238C320.57 549.765 320.715 550.188 320.888 550.507C321.057 550.852 321.365 551.163 321.812 551.438L322.488 551.811L322.435 552.208L312.564 550.883L312.612 550.526L313.447 550.316C314.053 550.209 314.398 549.945 314.481 549.526C314.534 549.13 314.496 548.613 314.366 547.977L311.68 536.72L306.302 547.016C306.009 547.595 305.863 548.087 305.862 548.491C305.859 548.92 306.15 549.256 306.736 549.496L307.542 549.806L307.489 550.202L301.979 549.463L302.032 549.066L302.941 548.906C303.574 548.802 304.032 548.595 304.316 548.283C304.6 547.971 304.889 547.526 305.182 546.946L313.9 530.399C315.303 527.762 316.613 525.826 317.828 524.59C319.043 523.354 320.47 522.846 322.109 523.065Z" fill="#1E1E1E" /><path d="M287.893 548.91C288.772 549.131 289.454 549.592 289.937 550.291C290.388 551.01 290.507 551.796 290.291 552.65C290.07 553.529 289.593 554.165 288.861 554.558C288.104 554.944 287.285 555.027 286.406 554.805C285.527 554.583 284.859 554.126 284.401 553.433C283.943 552.74 283.825 551.954 284.047 551.075C284.262 550.221 284.739 549.585 285.477 549.166C286.209 548.773 287.014 548.688 287.893 548.91ZM297.831 528.809L297.733 529.197L297.151 529.216C296.594 529.24 296.187 529.385 295.927 529.65C295.642 529.908 295.434 530.295 295.304 530.812L292.242 542.952C292.105 543.495 292.107 543.922 292.249 544.233C292.358 544.563 292.659 544.845 293.15 545.079L293.663 545.332L293.565 545.72L285.891 546.218L285.601 545.732L287.106 540.254L289.845 529.394C289.975 528.877 289.989 528.441 289.887 528.085C289.758 527.722 289.468 527.401 289.015 527.122L288.657 526.908L288.755 526.52L297.831 528.809Z" fill="#1E1E1E" /><path d="M289.188 526.915L289.061 527.294L288.479 527.268C287.509 527.224 286.859 527.695 286.529 528.681L282.548 540.551C282.361 541.108 282.314 541.542 282.406 541.854C282.49 542.191 282.768 542.495 283.239 542.766L283.757 543.109L283.63 543.488L276.407 543.513L276.155 543.006L276.615 540.629C275.467 541.116 274.252 541.426 272.97 541.558C271.688 541.691 270.504 541.575 269.417 541.21C267.748 540.651 266.624 539.768 266.044 538.561C265.439 537.345 265.451 535.802 266.078 533.931L269.741 523.009C270.071 522.023 269.799 521.242 268.923 520.667L268.62 520.439L268.747 520.06L277.697 523.061L277.57 523.441L277.026 523.427C276.048 523.408 275.398 523.879 275.075 524.84L271.018 536.938C270.476 538.556 271.013 539.636 272.631 540.179C273.744 540.552 275.144 540.403 276.832 539.731L281.156 526.837C281.487 525.851 281.252 525.083 280.452 524.534L280.149 524.305L280.276 523.926L289.188 526.915Z" fill="#1E1E1E" /><path d="M262.001 517.033L261.828 517.393L261.307 517.277C260.792 517.178 260.334 517.209 259.931 517.371C259.516 517.557 259.194 517.89 258.963 518.371C258.537 519.26 258.116 520.138 257.701 521.004C257.25 521.882 256.811 522.766 256.385 523.655L252.044 532.708L254.063 533.677L253.873 534.074L253.01 533.837C252.506 533.655 252.077 533.656 251.722 533.841C251.368 534.026 251.021 534.347 250.683 534.806C249.993 535.629 249.252 536.279 248.461 536.757C247.634 537.248 246.776 537.65 245.886 537.963C244.558 538.39 243.307 538.53 242.136 538.382C240.929 538.247 239.833 537.943 238.847 537.471C237.885 537.009 237.106 536.384 236.508 535.595C235.899 534.83 235.814 533.99 236.252 533.076C236.563 532.427 237.003 532.002 237.573 531.802C238.13 531.626 238.758 531.705 239.455 532.04C240.032 532.316 240.486 532.726 240.817 533.269C241.148 533.813 241.352 534.59 241.428 535.603L241.639 536.458C241.742 536.922 241.932 537.205 242.208 537.308C242.472 537.435 242.757 537.334 243.062 537.007C243.634 536.246 244.239 535.324 244.877 534.24C245.491 533.145 246.057 532.056 246.576 530.974L242.537 529.037L242.882 528.315L246.922 530.252L253.771 515.97C254.209 515.056 254.011 514.236 253.176 513.511L252.378 512.862L252.551 512.501L262.001 517.033Z" fill="#1E1E1E" /><path d="M236.719 528.878C237.514 529.314 238.057 529.932 238.349 530.73C238.604 531.54 238.521 532.33 238.097 533.102C237.661 533.897 237.04 534.392 236.233 534.588C235.402 534.771 234.59 534.645 233.795 534.209C233 533.773 232.468 533.162 232.2 532.376C231.931 531.59 232.015 530.8 232.451 530.005C232.874 529.233 233.496 528.738 234.316 528.518C235.123 528.322 235.924 528.442 236.719 528.878ZM251.399 511.93L251.207 512.28L250.639 512.151C250.094 512.035 249.663 512.072 249.345 512.263C249.005 512.441 248.706 512.764 248.449 513.232L242.428 524.209C242.159 524.7 242.053 525.113 242.112 525.45C242.135 525.797 242.354 526.145 242.771 526.495L243.204 526.87L243.012 527.22L235.459 525.769L235.3 525.226L238.137 520.304L243.524 510.484C243.78 510.016 243.903 509.597 243.894 509.227C243.861 508.844 243.66 508.46 243.293 508.076L243 507.779L243.192 507.428L251.399 511.93Z" fill="#1E1E1E" /><path d="M243.475 507.893L243.256 508.227L242.7 508.055C241.772 507.768 241.024 508.06 240.456 508.931L233.612 519.415C233.291 519.906 233.136 520.315 233.147 520.64C233.143 520.988 233.335 521.352 233.723 521.733L234.138 522.195L233.919 522.53L226.923 520.733L226.807 520.18L227.851 517.995C226.618 518.177 225.364 518.171 224.09 517.976C222.816 517.781 221.699 517.37 220.739 516.743C219.265 515.781 218.4 514.643 218.143 513.329C217.864 512 218.264 510.51 219.342 508.857L225.64 499.211C226.208 498.34 226.141 497.516 225.438 496.739L225.203 496.442L225.421 496.107L233.326 501.267L233.107 501.602L232.584 501.452C231.643 501.187 230.895 501.479 230.341 502.328L223.365 513.012C222.432 514.441 222.68 515.622 224.11 516.555C225.092 517.197 226.485 517.405 228.287 517.181L235.722 505.793C236.29 504.922 236.257 504.12 235.621 503.386L235.385 503.089L235.604 502.754L243.475 507.893Z" fill="#1E1E1E" /><path d="M208.875 510.731C209.594 511.283 210.036 511.976 210.202 512.811C210.331 513.649 210.127 514.418 209.591 515.115C209.038 515.834 208.348 516.229 207.52 516.299C206.672 516.353 205.888 516.103 205.169 515.551C204.45 514.998 204.019 514.313 203.874 513.495C203.729 512.677 203.933 511.909 204.485 511.19C205.022 510.492 205.712 510.098 206.556 510.007C207.383 509.937 208.156 510.178 208.875 510.731ZM225.978 496.23L225.734 496.547L225.192 496.332C224.672 496.134 224.24 496.105 223.897 496.245C223.533 496.369 223.188 496.642 222.863 497.065L215.232 506.99C214.891 507.434 214.724 507.827 214.73 508.168C214.699 508.515 214.863 508.893 215.221 509.302L215.591 509.739L215.348 510.056L208.106 507.465L208.033 506.904L211.59 502.474L218.416 493.595C218.741 493.172 218.928 492.777 218.975 492.41C219.001 492.026 218.861 491.616 218.557 491.181L218.313 490.842L218.557 490.525L225.978 496.23Z" fill="#1E1E1E" /><path d="M213.804 485.701C215.098 486.815 215.83 488.008 216 489.281C216.151 490.537 215.617 491.872 214.399 493.287L205.473 503.653L207.565 505.454L207.304 505.757L206.472 505.252C205.724 504.854 205.014 504.595 204.343 504.475C203.652 504.338 202.893 504.3 202.066 504.362L197.205 504.98L196.902 504.719L200.647 500.554L197.252 497.63L197.774 497.024L201.199 499.973L210.595 489.061C211.204 488.354 211.513 487.688 211.523 487.063C211.513 486.421 211.266 485.891 210.781 485.473C210.356 485.108 209.896 484.887 209.398 484.811C208.883 484.755 208.308 484.769 207.671 484.855L207.629 484.291C208.625 483.951 209.65 483.884 210.706 484.089C211.761 484.294 212.794 484.831 213.804 485.701Z" fill="#1E1E1E" /><path d="M188.57 490.057C187.349 488.827 186.562 487.523 186.208 486.145C185.836 484.786 185.86 483.448 186.279 482.129C186.661 480.811 187.401 479.606 188.498 478.517C188.707 478.31 188.934 478.103 189.179 477.897C189.406 477.709 189.633 477.559 189.86 477.447L198.258 485.906C200.283 483.858 201.402 482.033 201.616 480.431C201.791 478.829 201.184 477.327 199.793 475.927C198.854 474.981 197.941 474.365 197.056 474.079C196.171 473.793 195.181 473.685 194.088 473.757L194.061 473.219C195.684 472.773 197.278 472.75 198.842 473.152C200.386 473.534 201.835 474.407 203.188 475.769C204.522 477.113 205.422 478.587 205.887 480.191C206.334 481.815 206.309 483.455 205.813 485.113C205.317 486.77 204.321 488.341 202.826 489.825C201.275 491.366 199.621 492.331 197.866 492.721C196.092 493.129 194.395 493.086 192.775 492.59C191.137 492.074 189.735 491.23 188.57 490.057ZM189.222 489.579C189.767 490.127 190.407 490.431 191.142 490.491C191.84 490.55 192.727 490.27 193.804 489.652C194.843 489.033 196.139 487.972 197.691 486.469L192.871 481.615C190.621 483.474 189.21 485.025 188.64 486.267C188.07 487.51 188.264 488.613 189.222 489.579Z" fill="#1E1E1E" /><path d="M191.893 464.37L191.58 464.618L191.157 464.34C190.31 463.786 189.489 463.823 188.695 464.451L171.907 477.722C171.488 478.053 171.24 478.385 171.164 478.717C171.066 479.067 171.13 479.492 171.356 479.993L171.584 480.475L171.271 480.723L165.382 476.048L165.367 475.448L169.859 472.1L180.591 463.617C181.365 463.005 182.139 462.393 182.913 461.781C183.649 461.165 184.394 460.559 185.147 459.964C185.566 459.633 185.845 459.277 185.984 458.894C186.103 458.528 186.068 458.097 185.879 457.6L185.651 457.118L185.965 456.87L191.893 464.37Z" fill="#1E1E1E" /><path d="M181.282 449.252C182.421 450.928 183.068 452.616 183.223 454.316C183.356 456.031 183.015 457.665 182.2 459.218C181.371 460.749 180.095 462.098 178.375 463.267C176.654 464.436 174.926 465.094 173.189 465.243C171.437 465.369 169.8 465.047 168.277 464.276C166.739 463.483 165.438 462.303 164.374 460.737C163.31 459.171 162.7 457.538 162.545 455.838C162.368 454.154 162.668 452.531 163.446 450.971C164.209 449.389 165.461 448.006 167.204 446.822C168.947 445.639 170.69 444.954 172.434 444.769C174.141 444.577 175.767 444.858 177.312 445.614C178.819 446.363 180.143 447.575 181.282 449.252ZM180.62 449.701C180.095 448.929 179.455 448.461 178.699 448.298C177.944 448.134 176.936 448.335 175.676 448.901C174.401 449.445 172.738 450.413 170.687 451.807C168.613 453.215 167.089 454.412 166.114 455.397C165.123 456.36 164.565 457.222 164.439 457.985C164.312 458.748 164.511 459.516 165.036 460.288C165.56 461.06 166.208 461.539 166.979 461.724C167.734 461.888 168.75 461.698 170.025 461.154C171.284 460.588 172.951 459.601 175.025 458.193C177.076 456.799 178.597 455.621 179.587 454.658C180.562 453.674 181.113 452.8 181.239 452.037C181.351 451.252 181.144 450.473 180.62 449.701Z" fill="#1E1E1E" /><path d="M171.434 433.22C172.407 434.997 172.89 436.74 172.882 438.447C172.85 440.166 172.355 441.76 171.395 443.228C170.423 444.672 169.024 445.894 167.2 446.893C165.375 447.892 163.591 448.382 161.848 448.363C160.093 448.321 158.494 447.844 157.051 446.931C155.596 445.995 154.414 444.696 153.505 443.036C152.596 441.375 152.145 439.691 152.153 437.984C152.137 436.29 152.592 434.704 153.515 433.226C154.426 431.724 155.805 430.467 157.653 429.455C159.501 428.444 161.301 427.929 163.055 427.911C164.772 427.883 166.364 428.319 167.83 429.219C169.259 430.108 170.46 431.442 171.434 433.22ZM170.732 433.604C170.284 432.785 169.691 432.258 168.954 432.023C168.218 431.788 167.195 431.892 165.887 432.335C164.566 432.754 162.818 433.559 160.643 434.75C158.444 435.954 156.812 436.999 155.747 437.886C154.67 438.75 154.031 439.555 153.833 440.302C153.634 441.05 153.758 441.833 154.207 442.651C154.655 443.47 155.254 444.009 156.003 444.267C156.74 444.502 157.769 444.41 159.09 443.991C160.398 443.548 162.151 442.725 164.35 441.521C166.525 440.33 168.152 439.303 169.23 438.439C170.294 437.552 170.926 436.735 171.125 435.988C171.311 435.217 171.18 434.423 170.732 433.604Z" fill="#1E1E1E" /><path d="M175.423 423.026L175.056 423.183L174.72 422.805C174.086 422.003 173.304 421.801 172.372 422.2L152.369 430.766C151.829 430.996 151.467 431.268 151.281 431.579C151.085 431.866 151.043 432.276 151.155 432.808L151.265 433.37L150.897 433.528L146.088 428.19L146.298 427.665L147.296 426.846C146.46 426.247 145.696 425.515 145.007 424.65C144.307 423.76 143.731 422.788 143.28 421.734C142.377 419.626 142.472 417.613 143.565 415.694C144.624 413.762 146.648 412.155 149.639 410.874C152.58 409.615 155.191 409.309 157.47 409.958C159.739 410.582 161.403 412.132 162.463 414.608C163.293 416.544 163.709 418.295 163.712 419.86L170.073 417.136C171.054 416.717 171.478 416.013 171.345 415.025L171.23 414.248L171.597 414.091L175.423 423.026ZM162.153 416.829C161.628 415.604 160.576 414.908 158.997 414.743C157.407 414.553 155.129 415.094 152.163 416.364C149.197 417.634 147.273 418.864 146.39 420.054C145.483 421.255 145.307 422.505 145.863 423.804C146.252 424.711 146.976 425.59 148.037 426.442L162.856 420.096C162.849 418.997 162.615 417.908 162.153 416.829Z" fill="#1E1E1E" /><path d="M157.144 400.34C157.545 401.583 157.753 402.749 157.768 403.837C157.808 404.917 157.747 405.945 157.586 406.922L153.043 408.345L152.92 407.964L154.787 405.933C155.622 405.047 156.187 404.193 156.482 403.369C156.743 402.528 156.706 401.588 156.37 400.547C155.977 399.329 155.396 398.438 154.625 397.874C153.821 397.292 152.963 397.149 152.049 397.444C151.212 397.714 150.612 398.201 150.251 398.906C149.89 399.611 149.727 400.756 149.762 402.342L149.783 404.101C149.825 405.796 149.508 407.243 148.83 408.443C148.152 409.642 147.115 410.467 145.719 410.917C144.044 411.457 142.41 411.256 140.817 410.313C139.224 409.369 138.03 407.667 137.236 405.205C136.917 404.215 136.733 403.252 136.683 402.316C136.599 401.362 136.642 400.409 136.812 399.458L140.997 398.36L141.12 398.741L139.189 400.835C138.507 401.587 138.079 402.257 137.905 402.846C137.697 403.418 137.744 404.173 138.047 405.112C138.325 405.975 138.828 406.709 139.556 407.315C140.284 407.921 141.092 408.08 141.98 407.794C142.843 407.516 143.426 406.977 143.729 406.179C144.024 405.356 144.182 404.24 144.204 402.832L144.147 400.959C144.116 398.952 144.468 397.395 145.204 396.289C145.915 395.191 146.955 394.421 148.326 393.979C150.179 393.382 151.901 393.639 153.492 394.751C155.075 395.837 156.293 397.7 157.144 400.34Z" fill="#1E1E1E" /><path d="M153.65 388.459C153.888 389.389 153.766 390.26 153.286 391.071C152.805 391.882 152.113 392.403 151.208 392.634C150.304 392.866 149.434 392.744 148.597 392.27C147.76 391.796 147.222 391.094 146.984 390.164C146.746 389.234 146.881 388.36 147.387 387.543C147.894 386.725 148.599 386.2 149.503 385.969C150.407 385.738 151.265 385.862 152.076 386.343C152.887 386.824 153.412 387.529 153.65 388.459Z" fill="#1E1E1E" /></g></svg>